<?xml version="1.0" encoding="utf-8"?>
<!-- Generator: Adobe Illustrator 22.1.0, SVG Export Plug-In . SVG Version: 6.00 Build 0)  -->
<svg version="1.1" id="Layer_1" xmlns="http://www.w3.org/2000/svg" xmlns:xlink="http://www.w3.org/1999/xlink" x="0px" y="0px"
	 viewBox="0 0 16 16" style="enable-background:new 0 0 16 16;" xml:space="preserve">
<style type="text/css">
	.st0{fill:#D4145A;}
	.st1{opacity:0.25;}
</style>
<g>
	<path class="st0" d="M8.6,3.8c0.6-0.1,1.6-0.2,2.6-0.2c1.4,0,2.3,0.2,3,0.8C14.7,4.8,15,5.4,15,6.3c0,1-0.7,2-1.8,2.4v0
		c1,0.3,2.2,1.1,2.2,2.7c0,0.9-0.4,1.6-0.9,2.2c-0.7,0.7-2,1-3.7,1c-1,0-1.7-0.1-2.2-0.1V3.8z M10,8.3h1.3c1.5,0,2.3-0.8,2.3-1.8
		c0-1.3-1-1.8-2.4-1.8c-0.6,0-1,0-1.2,0.1V8.3z M10,13.5c0.3,0,0.7,0.1,1.2,0.1c1.4,0,2.8-0.5,2.8-2.1c0-1.5-1.3-2.1-2.8-2.1H10
		V13.5z"/>
</g>
<g>
	<path d="M7.4,8.1H2v5.1h6.1v1.5h-8V0.6h7.7v1.5H2v4.5h5.5V8.1z"/>
</g>
<g class="st1">
	<path d="M7.7,8.5H2.2v5.1h6.1v1.5h-8V1h7.7v1.5H2.2V7h5.5V8.5z"/>
</g>
<g class="st1">
	<path class="st0" d="M9,4.1c0.6-0.1,1.6-0.2,2.6-0.2c1.4,0,2.3,0.2,3,0.8c0.6,0.4,0.9,1.1,0.9,1.9c0,1-0.7,2-1.8,2.4v0
		c1,0.3,2.2,1.1,2.2,2.7c0,0.9-0.4,1.6-0.9,2.2c-0.7,0.7-2,1-3.7,1c-1,0-1.7-0.1-2.2-0.1V4.1z M10.4,8.6h1.3c1.5,0,2.3-0.8,2.3-1.8
		c0-1.3-1-1.8-2.4-1.8c-0.6,0-1,0-1.2,0.1V8.6z M10.4,13.8c0.3,0,0.7,0.1,1.2,0.1c1.4,0,2.8-0.5,2.8-2.1c0-1.5-1.3-2.1-2.8-2.1h-1.2
		V13.8z"/>
</g>
</svg>
