<?xml version="1.0" encoding="utf-8"?>
<!-- Generator: Adobe Illustrator 22.1.0, SVG Export Plug-In . SVG Version: 6.00 Build 0)  -->
<svg version="1.1" id="Layer_1" xmlns="http://www.w3.org/2000/svg" xmlns:xlink="http://www.w3.org/1999/xlink" x="0px" y="0px"
	 viewBox="0 0 144 144" style="enable-background:new 0 0 144 144;" xml:space="preserve">
<style type="text/css">
	.st0{fill:#00829F;}
	.st1{fill:#FFFFFF;}
	.st2{font-family:'SourceSansPro-Bold';}
	.st3{font-size:102.202px;}
</style>
<path class="st0" d="M132.2,87.3l-43.7,43.7c-11.4,11.4-30.2,11.4-41.6,0L12,96.1C0.5,84.7,0.5,66,12,54.5l43.7-43.7
	c11.4-11.4,30.2-11.4,41.6,0l34.9,34.9C143.7,57.2,143.7,75.9,132.2,87.3z"/>
<g>
	<path class="st1" d="M104.8,88.4H90.4c-2.1,0-3.5-0.5-4.4-1.4c-0.9-0.9-1.3-2.4-1.3-4.4V47.3c0-2.1,0.5-3.6,1.4-4.5
		c0.9-0.9,2.4-1.4,4.4-1.4h15.2c2.2,0,4.2,0.1,5.8,0.4s3.1,0.8,4.4,1.6c1.1,0.7,2.1,1.5,2.9,2.5c0.9,1,1.5,2.1,2,3.4
		s0.7,2.5,0.7,3.9c0,4.7-2.3,8.1-7,10.3c6.2,2,9.3,5.8,9.3,11.5c0,2.6-0.7,5-2,7.1c-1.3,2.1-3.2,3.7-5.4,4.7c-1.4,0.6-3.1,1-4.9,1.3
		C109.4,88.3,107.2,88.4,104.8,88.4z M94.2,48.6v12.1h8.7c2.4,0,4.2-0.2,5.5-0.7s2.3-1.3,3-2.6c0.5-0.9,0.8-1.9,0.8-3
		c0-2.4-0.8-3.9-2.5-4.7c-1.7-0.8-4.3-1.2-7.7-1.2H94.2z M104.1,67.6h-9.9v13.7h10.2c6.4,0,9.6-2.3,9.6-6.9c0-2.4-0.8-4.1-2.5-5.2
		C109.9,68.1,107.4,67.6,104.1,67.6z"/>
</g>
<text transform="matrix(1 0 0 1 28.6613 107.9945)" class="st2 st3">E</text>
</svg>
